<mxfile host="app.diagrams.net" modified="2021-03-01T09:46:43.289Z" agent="5.0 (Windows NT 10.0; Win64; x64) AppleWebKit/537.36 (KHTML, like Gecko) Chrome/88.0.4324.190 Safari/537.36" etag="NIpIpXTsvEcecNAgXWSW" version="14.4.2" type="github">
  <diagram id="T-l8VSSl4ciUxDCMX_bB" name="Page-1">
    <mxGraphModel dx="1185" dy="662" grid="1" gridSize="10" guides="1" tooltips="1" connect="1" arrows="1" fold="1" page="1" pageScale="1" pageWidth="827" pageHeight="1169" math="0" shadow="0">
      <root>
        <mxCell id="0" />
        <mxCell id="1" parent="0" />
        <mxCell id="gUwzSugtilsEO7iGyhp5-1" value="User / Admin" style="whiteSpace=wrap;html=1;aspect=fixed;" vertex="1" parent="1">
          <mxGeometry x="150" y="550" width="110" height="110" as="geometry" />
        </mxCell>
        <mxCell id="gUwzSugtilsEO7iGyhp5-2" value="Aptitude Test ID" style="whiteSpace=wrap;html=1;aspect=fixed;" vertex="1" parent="1">
          <mxGeometry x="340" y="550" width="110" height="110" as="geometry" />
        </mxCell>
        <mxCell id="gUwzSugtilsEO7iGyhp5-3" value="Aptitude Test Type" style="whiteSpace=wrap;html=1;aspect=fixed;" vertex="1" parent="1">
          <mxGeometry x="530" y="550" width="110" height="110" as="geometry" />
        </mxCell>
        <mxCell id="gUwzSugtilsEO7iGyhp5-4" value="Aptitude Test Questions &amp;amp; Answers" style="whiteSpace=wrap;html=1;aspect=fixed;" vertex="1" parent="1">
          <mxGeometry x="530" y="730" width="110" height="110" as="geometry" />
        </mxCell>
        <mxCell id="gUwzSugtilsEO7iGyhp5-5" value="Applicants Answers" style="whiteSpace=wrap;html=1;aspect=fixed;" vertex="1" parent="1">
          <mxGeometry x="530" y="910" width="110" height="110" as="geometry" />
        </mxCell>
        <mxCell id="gUwzSugtilsEO7iGyhp5-6" value="Applicants Result" style="whiteSpace=wrap;html=1;aspect=fixed;" vertex="1" parent="1">
          <mxGeometry x="340" y="810" width="110" height="110" as="geometry" />
        </mxCell>
        <mxCell id="gUwzSugtilsEO7iGyhp5-7" value="" style="endArrow=none;html=1;" edge="1" parent="1">
          <mxGeometry width="50" height="50" relative="1" as="geometry">
            <mxPoint x="260" y="600" as="sourcePoint" />
            <mxPoint x="340" y="600" as="targetPoint" />
          </mxGeometry>
        </mxCell>
        <mxCell id="gUwzSugtilsEO7iGyhp5-8" value="" style="endArrow=none;html=1;" edge="1" parent="1">
          <mxGeometry width="50" height="50" relative="1" as="geometry">
            <mxPoint x="450" y="600" as="sourcePoint" />
            <mxPoint x="530" y="600" as="targetPoint" />
          </mxGeometry>
        </mxCell>
        <mxCell id="gUwzSugtilsEO7iGyhp5-9" value="" style="endArrow=none;html=1;entryX=0.5;entryY=0;entryDx=0;entryDy=0;exitX=0.5;exitY=1;exitDx=0;exitDy=0;" edge="1" parent="1" source="gUwzSugtilsEO7iGyhp5-3" target="gUwzSugtilsEO7iGyhp5-4">
          <mxGeometry width="50" height="50" relative="1" as="geometry">
            <mxPoint x="540" y="690" as="sourcePoint" />
            <mxPoint x="620" y="690" as="targetPoint" />
          </mxGeometry>
        </mxCell>
        <mxCell id="gUwzSugtilsEO7iGyhp5-10" value="" style="endArrow=none;html=1;entryX=0.5;entryY=0;entryDx=0;entryDy=0;exitX=0.5;exitY=1;exitDx=0;exitDy=0;" edge="1" parent="1">
          <mxGeometry width="50" height="50" relative="1" as="geometry">
            <mxPoint x="584.5" y="840" as="sourcePoint" />
            <mxPoint x="584.5" y="910" as="targetPoint" />
          </mxGeometry>
        </mxCell>
        <mxCell id="gUwzSugtilsEO7iGyhp5-11" value="" style="endArrow=none;html=1;exitX=0.5;exitY=0;exitDx=0;exitDy=0;entryX=0.5;entryY=1;entryDx=0;entryDy=0;" edge="1" parent="1" source="gUwzSugtilsEO7iGyhp5-6" target="gUwzSugtilsEO7iGyhp5-2">
          <mxGeometry width="50" height="50" relative="1" as="geometry">
            <mxPoint x="350" y="710" as="sourcePoint" />
            <mxPoint x="400" y="660" as="targetPoint" />
          </mxGeometry>
        </mxCell>
        <mxCell id="gUwzSugtilsEO7iGyhp5-12" value="" style="endArrow=none;html=1;exitX=1;exitY=0.5;exitDx=0;exitDy=0;" edge="1" parent="1" source="gUwzSugtilsEO7iGyhp5-6">
          <mxGeometry width="50" height="50" relative="1" as="geometry">
            <mxPoint x="480" y="1010" as="sourcePoint" />
            <mxPoint x="530" y="960" as="targetPoint" />
          </mxGeometry>
        </mxCell>
        <mxCell id="gUwzSugtilsEO7iGyhp5-13" value="" style="endArrow=none;html=1;exitX=1;exitY=0.5;exitDx=0;exitDy=0;entryX=0;entryY=0.5;entryDx=0;entryDy=0;" edge="1" parent="1" target="gUwzSugtilsEO7iGyhp5-6">
          <mxGeometry width="50" height="50" relative="1" as="geometry">
            <mxPoint x="200" y="660" as="sourcePoint" />
            <mxPoint x="280" y="755" as="targetPoint" />
          </mxGeometry>
        </mxCell>
      </root>
    </mxGraphModel>
  </diagram>
</mxfile>
